<svg width="14" height="16" viewBox="0 0 14 16" fill="none" xmlns="http://www.w3.org/2000/svg">
<path d="M2.01215 0.50001L11.9878 0.50001C12.4991 0.50001 12.9546 0.744321 13.2375 1.17029C13.5203 1.59626 13.5687 2.11084 13.3703 2.58209L8.38244 14.4282C8.09748 15.105 7.48147 15.3461 6.99999 15.3461C6.51851 15.3461 5.9025 15.105 5.61754 14.4282L0.629696 2.58209C0.431276 2.11084 0.479686 1.59626 0.762516 1.17029C1.04536 0.744321 1.50083 0.50001 2.01215 0.50001Z" fill="#707070"/>
<path d="M6.9998 14.8461C7.15556 14.8461 7.68236 14.802 7.92143 14.2342L12.9093 2.38806C13.0416 2.0739 13.0093 1.73085 12.8207 1.44686C12.6322 1.16288 12.3285 1.00001 11.9876 1.00001L2.01196 1.00001C1.67108 1.00001 1.36743 1.16288 1.17888 1.44686C0.99032 1.73085 0.95804 2.0739 1.09033 2.38806L6.07817 14.2342C6.31725 14.802 6.84404 14.8461 6.9998 14.8461ZM6.9998 15.8461C6.24994 15.8461 5.50008 15.4382 5.15653 14.6222L0.16869 2.77612C-0.38637 1.45786 0.5816 1.33514e-05 2.01196 1.33514e-05L11.9876 1.33514e-05C13.418 1.33514e-05 14.386 1.45786 13.8309 2.77612L8.84307 14.6222C8.49953 15.4382 7.74966 15.8461 6.9998 15.8461Z" fill="#707070"/>
</svg>
